<?xml version="1.0" standalone="no"?>
<!DOCTYPE svg PUBLIC "-//W3C//DTD SVG 20010904//EN"
 "http://www.w3.org/TR/2001/REC-SVG-20010904/DTD/svg10.dtd">
<svg version="1.0" xmlns="http://www.w3.org/2000/svg"
 width="64.000000pt" height="64.000000pt" viewBox="0 0 64.000000 64.000000"
 preserveAspectRatio="xMidYMid meet">

<g transform="translate(0.000000,64.000000) scale(0.100000,-0.100000)"
fill="#000000" stroke="none">
<path d="M180 497 c-16 -8 -28 -26 -34 -49 -7 -28 -16 -38 -40 -45 -49 -14
-57 -42 -54 -185 3 -107 6 -130 21 -145 16 -16 40 -18 247 -18 207 0 231 2
247 18 15 15 18 38 21 145 3 143 -5 171 -54 185 -24 7 -33 17 -40 45 -6 23
-18 41 -34 49 -34 17 -246 17 -280 0z"/>
</g>
</svg>
